<?xml version="1.0" encoding="UTF-8"?><svg id="Layer_2" xmlns="http://www.w3.org/2000/svg" viewBox="0 0 278.71 161.23"><defs><style>.cls-1{fill:#97aa6e;}.cls-2{fill:none;}.cls-3{fill:#708250;}</style></defs><g id="Layer_1-2"><path class="cls-2" d="m189.77,113.95c-6.03,0-11.12,5.15-11.12,16.43,0,4.48.67,10.35,2.94,14.99,2.88,5.77,7.52,8.09,11.74,8.09,6.03,0,11.54-4.33,11.54-14.83,0-5.41-1.39-11.64-3.6-16.07-2.99-5.77-7.26-8.6-11.48-8.6Z"/><path class="cls-3" d="m96.1,151.18c-.83,0-1.29.41-2.58.41-2.21,0-3.09-2.16-3.09-4.43v-22.19c0-1.1.02-2.1.05-3.02.23-6.46,1.14-8.69,1.14-11.4,0-1.65-.83-3.04-2.79-3.04-1.85,0-6.43,1.39-12.82,2.06-2.32.31-3.5,1.13-3.5,2.83,0,1.96,1.6,2.58,2.94,3.71,2.21,1.6,2.72,3.4,2.72,7.06v15.81c0,9.52-4.89,13.75-11.27,13.75-7.79,0-10.13-6.37-10.24-14.46-.01-.21-.01-.42-.01-.63,0-15.81,2.26-22.15,2.26-27.04,0-1.44-.66-3.09-2.98-3.09s-4.79,1.13-12.83,2.01c-2.57.31-3.91,1.13-3.91,2.88,0,2.22,2.37,2.63,3.86,4.02,1.29,1.24,2.01,2.52,2.01,5.41,0,2.59-1.02,11.49-1.08,19.07v.7c0,10.82,4.74,19.62,17.25,19.62,8.55,0,12.98-4.27,14.83-5.97.57-.52,1.14-1.13,1.45-1.13.61,0,.87.61,1.08,1.03,1.18,2.52,3.34,5.82,9.16,5.82,5.15,0,9.27-3.61,9.27-8.04,0-1.18-.51-1.75-.92-1.75Z"/><path class="cls-3" d="m120.56,154.22c-1.55-1.34-2.47-2.78-2.47-6.33v-42.54c0-7.99.2-11.27.34-13.84.01,0,.01-.01.01-.01v-.03c.06-1.29.11-2.4.11-3.84,0-2.16-1.08-3.14-2.93-3.14-2.01,0-4.49,1.75-9.33,3.66-3.34,1.34-5.97,1.8-5.97,3.96,0,1.24,1.03,1.86,2.11,2.42,1.8.67,3.45,1.86,3.45,4.23v48.51c0,2.62-.41,4.84-2.93,7.1-.98.83-2.78,1.7-2.78,3.66,0,1.29.72,2.42,3.19,2.42,3.29,0,5.71-.26,8.8-.26,2.53,0,5.67.26,7.94.26,2.78,0,3.6-1.08,3.6-2.57,0-2.01-1.7-2.32-3.14-3.66Z"/><path class="cls-3" d="m161.76,146.6c-.67,0-1.08.41-1.85,1.24-1.44,1.49-3.91,3.55-7.16,3.55-6.39,0-7.62-6.18-7.62-12,0-5.25.31-19.83.46-21.68.05-.77.52-.88.82-.88,1.34,0,10.35.52,11.43.52.82,0,1.44-.31,1.75-.62.88-.93,1.85-3.19,1.85-4.94,0-2.42-1.29-2.99-3.3-2.99-1.18,0-11.28.52-12.15.52-.41,0-.46-.15-.46-.41,0-.36.52-8.34.52-10.35,0-2.63-1.08-4.02-2.73-4.02-2.94,0-3.24,5.56-7.16,9.94-2.27,2.47-5.41,4.22-8.5,5.61-1.75.82-2.32,2.16-2.32,3.71,0,2.01,2.21,2.27,5.97,2.73,1.54.21,2.01,1.13,2.01,3.09,0,5.1-.67,18.44-.67,23.12,0,12.31,4.74,18.49,14.01,18.49,8.75,0,13.44-5.2,15.35-8.86.77-1.34,1.13-2.68,1.13-3.66,0-1.65-.77-2.11-1.39-2.11Z"/><path class="cls-3" d="m190.91,107.21c-14.73,0-25.44,11.23-25.44,27.4s10.2,26.62,26.11,26.62c14.21,0,25.96-8.55,25.96-25.7,0-18.08-12.57-28.32-26.62-28.32Zm2.42,46.25c-4.22,0-8.86-2.32-11.74-8.09-2.27-4.63-2.94-10.51-2.94-14.99,0-11.28,5.1-16.43,11.12-16.43,4.22,0,8.5,2.83,11.48,8.6,2.21,4.43,3.6,10.66,3.6,16.07,0,10.51-5.51,14.83-11.54,14.83Z"/><path class="cls-3" d="m273.77,154.38c-1.6-1.18-2.42-3.24-2.42-5.25,0-3.4,1.44-12.21,1.44-21.68,0-13.24-5.97-20.24-16.89-20.24-10.04,0-16.38,8.39-17.46,8.39-.88,0-1.08-2.63-1.6-5.05-.51-2.21-1.44-2.88-3.04-2.88-1.7,0-3.35,1.13-7.62,2.99-3.35,1.44-6.02,1.85-6.02,4.12,0,1.24.93,1.91,2.01,2.42,1.8.67,3.5,1.7,3.5,4.38v25.7c0,2.63-.41,4.84-2.94,7.11-.98.82-2.78,1.7-2.78,3.66,0,1.29.72,2.42,3.19,2.42,3.35,0,5.77-.26,8.81-.26,2.63,0,4.89.26,7.67.26s3.6-1.08,3.6-2.57c0-2.01-1.7-2.32-3.19-3.66-1.55-1.34-2.16-2.78-2.16-6.33v-21.27c0-5.2,6.13-10.71,11.74-10.71,6.54,0,10.45,4.84,10.45,14.99s-1.29,19.72-2.27,22.76c-.36.98-1.18,2.73-1.18,4.38,0,1.29.67,2.42,2.68,2.42,2.57,0,4.02-.26,7.16-.26,2.83,0,4.63.26,6.95.26,2.78,0,3.86-1.03,3.86-2.57,0-1.96-1.6-2.27-3.5-3.5Z"/><path class="cls-3" d="m21.94,92.32c3.04,0,4.63,2.21,6.18,4.58.92,1.5,1.34,3.14,3.29,3.14,3.81,0,5.51-4.22,5.51-7.98s-4.06-7.72-10.76-7.72c-8.65,0-14.32,6.28-16.68,13.64-1.24,3.97-1.55,9.27-2.32,10.41-1.19,1.39-3.35,1.08-4.69,1.7-.93.61-2.47,2.72-2.47,4.27,0,1.8,1.8,1.9,5.3,2.32,1.5.25,2.22,1.03,2.22,2.73v27.86c0,2.62-.41,4.84-2.94,7.1-.98.83-2.78,1.7-2.78,3.66,0,1.29.72,2.42,3.2,2.42,3.24,0,5.87-.26,8.8-.26,4.38,0,7.62.26,10.4.26s3.61-1.08,3.61-2.57c0-2.12-2.83-2.63-4.48-3.66-2.78-1.8-3.61-3.25-3.61-6.8v-28.89c0-1.13.47-1.29.78-1.29,1.75,0,9.99.47,11.22.47.78,0,1.39-.21,1.81-.62,1.18-1.24,1.85-3.66,1.85-5.2,0-1.96-1.08-2.63-2.73-2.63-1.34,0-8.03.41-9.89.41-4.79,0-6.28-2.93-6.28-9.11,0-4.74,1.96-8.24,5.46-8.24Z"/><path class="cls-1" d="m134.4,43.66c-.39-.13-.77-.25-1.14-.37-7.22-2.37-11.58-3.9-11.58-8.58,0-3.66,2.81-6.47,7.9-6.47,1.26,0,2.41.16,3.47.44,4.53,1.19,7.38,4.56,9.4,7.14,1.54,1.96,2.65,3.76,4.4,3.76,1.64,0,2.7-1.43,2.7-4.24,0-4.13-.68-6.89-2.8-9.06-2.92-3.06-9.45-4.29-14.51-4.47-.46-.02-.91-.03-1.34-.03-10.76,0-20.51,5.93-20.51,16.21s7.79,12.93,14.84,15.64c2.41.94,4.62,1.71,6.54,2.49,4.46,1.8,7.34,3.6,7.34,7.41,0,4.19-2.91,6.89-8.05,6.89-1.01,0-1.96-.08-2.86-.23-6.92-1.11-10.82-6.16-13.25-9.68-1.06-1.59-2.07-2.75-3.18-2.75-1.86,0-2.81,1.48-2.81,4.45,0,3.82.9,7,2.33,8.74,2.81,3.73,8.75,5.76,14.21,6.53,1.75.24,3.45.36,4.98.36,12.29,0,21.62-6.3,21.62-16.85,0-11.07-8.64-14.47-17.7-17.33Z"/><path class="cls-1" d="m181.89,43.67c-7.9-2.6-12.72-4.03-12.72-8.96,0-3.66,2.81-6.47,7.9-6.47,6.62,0,10.39,4.4,12.88,7.58,1.54,1.96,2.65,3.76,4.4,3.76,1.64,0,2.7-1.43,2.7-4.24,0-4.13-.69-6.89-2.81-9.06-3.18-3.34-10.65-4.5-15.84-4.5-10.76,0-20.51,5.94-20.51,16.22s7.79,12.93,14.84,15.63c8,3.13,13.88,4.45,13.88,9.91,0,4.19-2.92,6.89-8.06,6.89-8.74,0-13.35-5.94-16.11-9.91-1.06-1.59-2.07-2.76-3.18-2.76-1.86,0-2.81,1.48-2.81,4.45,0,3.82.9,7,2.33,8.74,3.71,4.93,12.88,6.89,19.18,6.89,12.29,0,21.62-6.31,21.62-16.85,0-11.08-8.64-14.47-17.7-17.33Z"/><path class="cls-1" d="m224.02,70.27c-1.59-1.38-2.54-2.86-2.54-6.52v-20.67c0-10.39.53-15.16.53-17.91,0-2.28-1.01-3.29-3.02-3.29-1.8,0-4.66,1.8-9.64,3.82-3.44,1.38-6.2,1.59-6.2,4.08,0,1.33,1.22,2.07,2.33,2.7,1.91.79,3.45,2.38,3.45,5.3v25.33c0,2.7-.42,4.98-3.02,7.31-1.01.85-2.86,1.75-2.86,3.76,0,1.32.74,2.49,3.29,2.49,4.4,0,5.78-.27,9.06-.27,2.92,0,5.3.27,8.16.27s3.71-1.11,3.71-2.65c0-2.07-1.75-2.38-3.23-3.76Z"/><path class="cls-1" d="m212.52,15.9c5.62,0,11.18-4.29,11.18-9.59,0-3.87-2.97-6.31-6.73-6.31-5.3,0-10.39,5.3-10.39,10.44,0,3.13,1.96,5.46,5.94,5.46Z"/><path class="cls-1" d="m277.33,57.39c-.64,0-1.38.64-1.96,1.38-2.81,4.56-7.63,8.53-15.74,8.53-10.97,0-15.1-8.8-15.1-13.3,0-.74.37-.95,1.38-1.01,7.68-.26,21.73-1.59,28.03-5.41,2.33-1.32,3.92-3.23,3.92-6.52,0-9.59-7.15-19.18-20.56-19.18-16.27,0-27.08,13.46-27.08,29.04s10.07,26.66,25.75,26.66,22.73-11.02,22.73-17.44c0-1.91-.53-2.76-1.38-2.76Zm-34.18-13.3c0-7.84,5.46-15.37,12.93-15.37,5.56,0,9.75,4.5,9.75,10.44,0,1.48-.58,2.54-1.8,3.39-4.08,2.81-15.05,4.19-19.08,4.19-1.27,0-1.8-1.01-1.8-2.65Z"/><path class="cls-1" d="m104.19,67.14c-.8,0-1.33.42-2.6.42-2.33,0-3.07-2.22-3.07-4.55,0-4.83.58-12.99.58-19.88,0-13.72-8.85-21.3-22.52-21.3s-20.51,6.62-20.51,12.72c0,4.66,3.28,6.78,6.25,6.78s3.98-1.7,4.61-4.29c1.17-4.88,3.82-9.22,9.49-9.22,6.99,0,9.85,5.51,9.85,12.34,0,3.34-.53,4.19-1.11,4.62-1.27.9-9.59,1.21-16.48,3.17-9.38,2.81-15.42,8.22-15.42,16.54s6.99,13.19,15.95,13.19c6.04,0,11.77-2.54,15.21-5.88.42-.42.85-1.06,1.22-1.06s.69.43.9.9c1.59,3.87,4.56,5.57,9.06,5.57,5.3,0,9.54-3.71,9.54-8.27,0-1.22-.53-1.8-.95-1.8Zm-30.1,2.07c-4.56,0-7.85-2.55-7.85-6.95,0-3.76,2.49-7.47,8.11-9.32,3.02-.96,6.57-1.38,10.97-1.38.69,0,1.01.95,1.01,4.13,0,8.11-5.04,13.52-12.24,13.52Z"/><path class="cls-1" d="m47.32,55.74c-.69,0-1.33.75-1.8,1.38-1.91,3.08-5.83,9.01-15,9.01-11.18,0-17.59-9.06-17.59-20.61,0-9.97,5.14-16.91,11.92-16.91,5.62,0,8.37,5.04,9.54,10.44.74,3.08.9,4.45,3.39,4.45,4.45,0,8.27-2.96,8.27-8.05,0-7.58-7.85-13.57-18.66-13.57C10.59,21.88.42,35.34.42,50.82s10.49,26.76,25.75,26.76,22.69-11.02,22.69-18.81c0-1.65-.32-3.03-1.54-3.03Z"/></g></svg>