<?xml version="1.0" encoding="utf-8"?>
<!-- Generator: Adobe Illustrator 27.8.1, SVG Export Plug-In . SVG Version: 6.00 Build 0)  -->
<svg version="1.1" id="Layer_1" xmlns="http://www.w3.org/2000/svg" xmlns:xlink="http://www.w3.org/1999/xlink" x="0px" y="0px"
	 viewBox="0 0 60 60" style="enable-background:new 0 0 60 60;" xml:space="preserve">
<path d="M56,20H38c-2.2,0-4,1.8-4,4v10h-1c-1.1,0-2-0.9-2-2v-5c0-2.2-1.8-4-4-4h-1V4c0-2.2-1.8-4-4-4H4C1.8,0,0,1.8,0,4v32
	c0,2.2,1.8,4,4,4h18c2.2,0,4-1.8,4-4V25h1c1.1,0,2,0.9,2,2v5c0,2.2,1.8,4,4,4h1v20c0,2.2,1.8,4,4,4h18c2.2,0,4-1.8,4-4V24
	C60,21.8,58.2,20,56,20z M4,2h18c1.1,0,2,0.9,2,2v4H2V4C2,2.9,2.9,2,4,2z M22,38H4c-1.1,0-2-0.9-2-2v-4h22v4C24,37.1,23.1,38,22,38z
	 M24,30H2V10h22v13h-4.2c-0.4-1.2-1.5-2-2.8-2H9c-1.7,0-3,1.3-3,3s1.3,3,3,3h8c1.3,0,2.4-0.8,2.8-2H24V30z M18,24c0,0.6-0.4,1-1,1H9
	c-0.6,0-1-0.4-1-1s0.4-1,1-1h8C17.6,23,18,23.4,18,24z M38,22h18c1.1,0,2,0.9,2,2v4H36v-4C36,22.9,36.9,22,38,22z M40.3,37.7
	c0.4,0.4,1,0.4,1.4,0l2-2c0.1-0.1,0.2-0.2,0.2-0.3c0.1-0.2,0.1-0.5,0-0.8c0-0.1-0.1-0.2-0.2-0.3l-2-2c-0.4-0.4-1-0.4-1.4,0
	c-0.4,0.4-0.4,1,0,1.4l0.3,0.3H36v-4h22v20H36V36h4.6l-0.3,0.3C39.9,36.7,39.9,37.3,40.3,37.7z M56,58H38c-1.1,0-2-0.9-2-2v-4h22v4
	C58,57.1,57.1,58,56,58z"/>
<path d="M14,34h-2c-0.6,0-1,0.4-1,1s0.4,1,1,1h2c0.6,0,1-0.4,1-1S14.6,34,14,34z"/>
<path d="M16,6h1c0.6,0,1-0.4,1-1s-0.4-1-1-1h-1c-0.6,0-1,0.4-1,1S15.4,6,16,6z"/>
<path d="M9,6h3c0.6,0,1-0.4,1-1s-0.4-1-1-1H9C8.4,4,8,4.4,8,5S8.4,6,9,6z"/>
<path d="M48,54h-2c-0.6,0-1,0.4-1,1s0.4,1,1,1h2c0.6,0,1-0.4,1-1S48.6,54,48,54z"/>
<path d="M50,26h1c0.6,0,1-0.4,1-1s-0.4-1-1-1h-1c-0.6,0-1,0.4-1,1S49.4,26,50,26z"/>
<path d="M43,26h3c0.6,0,1-0.4,1-1s-0.4-1-1-1h-3c-0.6,0-1,0.4-1,1S42.4,26,43,26z"/>
</svg>
