<?xml version="1.0" encoding="utf-8"?>
<!-- Generator: Adobe Illustrator 27.8.1, SVG Export Plug-In . SVG Version: 6.00 Build 0)  -->
<svg version="1.1" id="Layer_1" xmlns="http://www.w3.org/2000/svg" xmlns:xlink="http://www.w3.org/1999/xlink" x="0px" y="0px"
	 viewBox="0 0 60 60" style="enable-background:new 0 0 60 60;" xml:space="preserve">
<g>
	<path d="M45,60H15c-3.3,0-6-2.7-6-6V6c0-3.3,2.7-6,6-6h30c3.3,0,6,2.7,6,6v48C51,57.3,48.3,60,45,60z M15,2c-2.2,0-4,1.8-4,4v48
		c0,2.2,1.8,4,4,4h30c2.2,0,4-1.8,4-4V6c0-2.2-1.8-4-4-4H15z"/>
	<path d="M32,7h-4c-0.6,0-1-0.4-1-1s0.4-1,1-1h4c0.6,0,1,0.4,1,1S32.6,7,32,7z"/>
	<circle cx="30" cy="54" r="1"/>
	<path d="M37,29H23c-0.6,0-1-0.4-1-1c0-0.2,0.1-0.4,0.2-0.6l5-7c0.2-0.3,0.5-0.4,0.8-0.4c0.3,0,0.6,0.1,0.8,0.4l2.3,3.1l1.2-1.2
		c0.4-0.4,1-0.4,1.4,0c0,0,0.1,0.1,0.1,0.1l4,5c0.3,0.4,0.3,1.1-0.2,1.4C37.4,28.9,37.2,29,37,29z M24.9,27h10l-2-2.5l-1.2,1.2
		c-0.4,0.4-1,0.4-1.4,0c0,0-0.1-0.1-0.1-0.1L28,22.7L24.9,27z"/>
	<path d="M33,20c-1.7,0-3-1.3-3-3s1.3-3,3-3c1.7,0,3,1.3,3,3S34.7,20,33,20z M33,16c-0.6,0-1,0.4-1,1s0.4,1,1,1s1-0.4,1-1
		S33.6,16,33,16z"/>
	<path d="M41,35H19c-2.2,0-4-1.8-4-4V14c0-2.2,1.8-4,4-4h22c2.2,0,4,1.8,4,4v17C45,33.2,43.2,35,41,35z M19,12c-1.1,0-2,0.9-2,2v17
		c0,1.1,0.9,2,2,2h22c1.1,0,2-0.9,2-2V14c0-1.1-0.9-2-2-2H19z"/>
	<circle cx="30" cy="39" r="1"/>
	<circle cx="34" cy="39" r="1"/>
	<circle cx="26" cy="39" r="1"/>
	<path d="M32,45h-4c-0.6,0-1-0.4-1-1s0.4-1,1-1h4c0.6,0,1,0.4,1,1S32.6,45,32,45z"/>
	<path d="M34,49h-8c-0.6,0-1-0.4-1-1s0.4-1,1-1h8c0.6,0,1,0.4,1,1S34.6,49,34,49z"/>
</g>
</svg>
