<?xml version="1.0" encoding="utf-8"?>
<!-- Generator: Adobe Illustrator 27.8.1, SVG Export Plug-In . SVG Version: 6.00 Build 0)  -->
<svg version="1.1" id="Layer_1" xmlns="http://www.w3.org/2000/svg" xmlns:xlink="http://www.w3.org/1999/xlink" x="0px" y="0px"
	 viewBox="0 0 64 61.8" style="enable-background:new 0 0 64 61.8;" xml:space="preserve">
<g>
	<path d="M34.1,34.2v5.5h2v-5.5c0-2.7-1.4-5.2-3.8-6.5c2.3-3,1.7-7.3-1.3-9.6s-7.3-1.7-9.6,1.3c-1.9,2.5-1.9,5.9,0,8.3
		c-2.3,1.3-3.8,3.8-3.8,6.5v5.5h2v-5.5c0-2.2,1.3-4.2,3.3-5.1l0.3,0.2c0.1,0.1,0.3,0.2,0.5,0.3c0.1,0.1,0.3,0.1,0.4,0.2
		c0.2,0.1,0.5,0.2,0.7,0.3l0,0c1.3,0.5,2.8,0.5,4.1,0l0,0c0.2-0.1,0.5-0.2,0.7-0.3c0.1-0.1,0.3-0.1,0.4-0.2c0.2-0.1,0.3-0.2,0.5-0.3
		l0.3-0.2C32.8,30.1,34.1,32,34.1,34.2z M30.1,27.2c-1.4,1.1-3.2,1.4-4.8,0.8c-0.5-0.2-1-0.5-1.5-0.8c-2-1.7-2.3-4.8-0.5-6.9
		c1.7-2,4.8-2.3,6.9-0.5s2.3,4.8,0.5,6.9C30.4,26.9,30.3,27.1,30.1,27.2z"/>
	<path d="M11.8,40.6C9.3,37.3,8,33.3,8,29.2C8,18.6,16.6,10,27.2,10c2.2,0,4.4,0.4,6.5,1.1l0.7-1.9c-11-3.9-23.1,1.8-27.1,12.8
		C4.9,28.7,6,36.1,10.2,41.8L11.8,40.6z"/>
	<path d="M47.5,46.7l-1.2,1.2l-4-4c3.9-4,6-9.3,6-14.8c0-1.1-0.1-2.2-0.3-3.3l-2,0.3c0.2,1,0.2,2,0.2,3c0,9.2-6.4,17.1-15.4,18.9
		l0.4,2c3.6-0.7,6.9-2.3,9.6-4.6l4,4l-1.2,1.2c-1.1,1.1-1.1,2.8,0,3.9l7.2,7.2l1.4-1.4L45,53.1c-0.3-0.3-0.3-0.8,0-1.1l3.9-3.9
		c0.3-0.3,0.8-0.3,1.1,0l8.3,8.3l1.4-1.4l-8.3-8.3C50.3,45.6,48.6,45.6,47.5,46.7z"/>
	<path d="M61,10H37c-0.6,0-1,0.4-1,1v12c0,0.6,0.4,1,1,1h24c0.6,0,1-0.4,1-1V11C62,10.4,61.6,10,61,10z M60,22H38V12h22V22z"/>
	<rect x="40" y="14" width="18" height="2"/>
	<rect x="40" y="18" width="10" height="2"/>
	<rect x="52" y="18" width="6" height="2"/>
	<path d="M27,43H3c-0.6,0-1,0.4-1,1v12c0,0.6,0.4,1,1,1h24c0.6,0,1-0.4,1-1V44C28,43.4,27.6,43,27,43z M26,55H4V45h22V55z"/>
	<rect x="6" y="47" width="18" height="2"/>
	<rect x="6" y="51" width="10" height="2"/>
	<rect x="18" y="51" width="6" height="2"/>
</g>
</svg>
